<?xml version="1.0" encoding="utf-8"?>
<!-- Generator: Adobe Illustrator 24.1.1, SVG Export Plug-In . SVG Version: 6.00 Build 0)  -->
<svg version="1.1" id="Layer_1" xmlns="http://www.w3.org/2000/svg" xmlns:xlink="http://www.w3.org/1999/xlink" x="0px" y="0px"
	 viewBox="0 0 512 512" style="enable-background:new 0 0 512 512;" xml:space="preserve">
<style type="text/css">
	.st0{fill-rule:evenodd;clip-rule:evenodd;}
</style>
<g>
	<path d="M141.2,123.6h282.5v105.9c0,78-63.2,141.2-141.2,141.2s-141.2-63.2-141.2-141.2V123.6z"/>
	<path class="st0" d="M211.9,0c9.7,0,17.7,7.9,17.7,17.7v105.9c0,9.7-7.9,17.7-17.7,17.7c-9.7,0-17.7-7.9-17.7-17.7V17.7
		C194.2,7.9,202.1,0,211.9,0z M353.1,0c9.7,0,17.7,7.9,17.7,17.7v105.9c0,9.7-7.9,17.7-17.7,17.7s-17.7-7.9-17.7-17.7V17.7
		C335.4,7.9,343.4,0,353.1,0z M251.2,429.1c9-18,13.6-49.7,13.6-93.6h35.3c0,44.4-4.3,83.3-17.3,109.4c-6.7,13.4-16.6,25-30.7,31
		c-14.2,6-29.8,5.3-45.8-0.1c-33.9-11.3-54.2-6.2-65.4,1.6c-11.7,8.1-17.3,21.7-17.3,34.6H88.3c0-22.4,9.8-47.8,32.4-63.6
		c23.1-16.1,55.8-19.8,96.8-6.1c10.5,3.5,16.9,2.8,20.9,1.1C242.4,441.6,247,437.7,251.2,429.1z"/>
</g>
</svg>
