<?xml version="1.0" encoding="utf-8"?>
<!-- Generator: Adobe Illustrator 24.1.1, SVG Export Plug-In . SVG Version: 6.00 Build 0)  -->
<svg version="1.1" id="Layer_1" xmlns="http://www.w3.org/2000/svg" xmlns:xlink="http://www.w3.org/1999/xlink" x="0px" y="0px"
	 viewBox="0 0 512 512" style="enable-background:new 0 0 512 512;" xml:space="preserve">
<g>
	<path d="M224,0v256h64V0H224z M142.1,92.2L117.8,112C65.9,153,32,217,32,288c0,123.5,100.5,224,224,224s224-100.5,224-224
		c0-71-33.9-135-85.8-176l-24.3-19.8l-40.3,49.9l24.3,19.8C391,191.4,416,236.8,416,288c0,89-71,160-160,160S96,377,96,288
		c0-51.2,23-96.6,60.2-126.1l26.3-19.8L142.1,92.2z"/>
</g>
</svg>
