<?xml version="1.0" encoding="utf-8"?>
<!-- Generator: Adobe Illustrator 24.1.1, SVG Export Plug-In . SVG Version: 6.00 Build 0)  -->
<svg version="1.1" id="Layer_1" xmlns="http://www.w3.org/2000/svg" xmlns:xlink="http://www.w3.org/1999/xlink" x="0px" y="0px"
	 viewBox="0 0 512 512" style="enable-background:new 0 0 512 512;" xml:space="preserve">
<g>
	<path d="M256,360.5c14.6,0,27,5.2,37.1,15.7c10.1,10.4,15.2,22.6,15.2,36.6c0,14.6-5.1,27-15.2,37.1C283,459.9,270.6,465,256,465
		c-13.9,0-25.9-5.1-36-15.2c-10.1-10.1-15.2-22.5-15.2-37.1c0-13.9,5.1-26.1,15.2-36.6S242.1,360.5,256,360.5 M146.3,302
		c30.7-30.7,67.2-46,109.7-46s79.1,15.3,109.7,46l-36.6,37.6c-20.2-20.2-44.6-30.3-73.1-30.3s-52.9,10.1-73.1,30.3L146.3,302
		 M73.1,228.8c50.9-51.5,112-77.3,183.4-77.3s132.2,25.8,182.3,77.3l-36.6,36.6c-40.4-41.1-89-61.6-145.8-61.6
		s-105.7,20.5-146.8,61.6L73.1,228.8 M0,154.6C71.1,82.9,156.6,47,256.5,47S441.6,82.9,512,154.6l-36.6,36.6
		c-60.6-61.3-133.7-92-219.4-92s-158.8,30.7-219.4,92L0,154.6"/>
</g>
</svg>
